<?xml version="1.0" encoding="UTF-8"?> <svg xmlns="http://www.w3.org/2000/svg" id="Capa_1" data-name="Capa 1" width="139.2276cm" height="19.5552cm" viewBox="0 0 3946.6094 554.3204"><defs><style>.cls-1{fill:#f4240f;}.cls-2{fill:#13192e;}.cls-3{fill:#fff;}</style></defs><polygon class="cls-1" points="2467.136 139.553 3946.609 139.553 3833.071 554.32 2353.598 554.32 2467.136 139.553"></polygon><path class="cls-2" d="M1112.337,227.4462v-.0557l-.0961.32C1112.2729,227.6405,1112.305,227.511,1112.337,227.4462Z" transform="translate(-42.466 -46.7408)"></path><path class="cls-2" d="M1111.48,229.7958a14.5956,14.5956,0,0,1-.8516,2.35l-5.13,17.9554,6.7423-22.39A13.71,13.71,0,0,0,1111.48,229.7958Z" transform="translate(-42.466 -46.7408)"></path><path class="cls-2" d="M474.1118,240.6289H404.0925l9.2436-31.6611,4.6219-15.9407,3.93-14.3282,4.6218-15.9495,3.4631-11.7815a20.8613,20.8613,0,0,1,.6961-2.5467v-.2291a39.2315,39.2315,0,0,0-.348-7.9747,28.5185,28.5185,0,0,0-1.7316-6.5825,47.4992,47.4992,0,0,0-2.5422-5.199,21.6219,21.6219,0,0,0-2.7757-3.93q-1.3879-1.4937-2.6568-2.6612a23.7554,23.7554,0,0,0-2.6568-2.08H584.8025a24.9627,24.9627,0,0,1,14.6762,4.2825,20.5889,20.5889,0,0,1,8.2038,11.667,27.8945,27.8945,0,0,1-.2335,15.4825l-3.463,11.5524q-1.6192,5.5515-3.12,10.5126-1.5068,4.9832-2.5422,8.7854-1.0441,3.82-2.89,10.98H525.4147l4.1592-14.3282,4.3927-15.9495,7.8558-27.0349H504.156l-7.6267,27.0349-4.6219,15.95-3.93,14.3282-4.6218,15.9407Z" transform="translate(-42.466 -46.7408)"></path><path class="cls-2" d="M809.1947,137.7941a25.2439,25.2439,0,0,1,0,14.3281,6.2516,6.2516,0,0,1-.2335,1.3835L804.802,168.063l-9.01,31.89q-3.2384,6.9394-12.2485,11.4467-9.0147,4.494-24.0345,4.5029H683.48l-2.3088,8.7766H788.6277l-4.6218,15.95H637.724a24.4144,24.4144,0,0,1-14.5573-4.2737,20.735,20.735,0,0,1-8.0893-11.6758,27.6517,27.6517,0,0,1-.9253-8.7766,41.8733,41.8733,0,0,1,1.1588-6.468l2.7714-9.4816,9.2436-31.89,4.1593-15.0155a2.3184,2.3184,0,0,1,.4626-.9253,38.9313,38.9313,0,0,1,7.8558-14.3281,49.2149,49.2149,0,0,1,14.7908-11.5524,37.1556,37.1556,0,0,1,17.0994-4.3971H786.3146a25.8035,25.8035,0,0,1,10.517,2.0884,22.6367,22.6367,0,0,1,7.8558,5.5427A20.7609,20.7609,0,0,1,809.1947,137.7941Zm-69.79,14.3281,4.1592-14.3281H705.8972l-4.1592,14.3281-4.3927,15.9408-9.2437,31.89h37.6665l9.0145-31.89Z" transform="translate(-42.466 -46.7408)"></path><path class="cls-2" d="M915.27,129.7048l.9252,6.01,4.3928,27.0349,2.5422,15.95,2.5422,14.3282,2.5423,15.9407.6917,4.1592.9253,5.7806,7.6266-9.94,12.4777-15.9407,11.3233-14.3282,12.4776-15.9495,21.03-27.0349,10.6316-13.632,1.8461-2.3175h31.89l-12.2485,15.9495-9.01,11.3233-.4626.4582-11.7859,15.2534-5.7762,7.1641-6.7015,8.7854-11.3232,14.3282-12.2486,15.9407-24.96,31.6611H856.8071l-5.318-31.6611-2.7714-15.9407-2.3131-14.3282-2.5422-15.9495-2.7714-17.0951-.2291-.9252-.9252,3.463a35.4626,35.4626,0,0,0-.1146-6.3533,25.0567,25.0567,0,0,0-1.1587-5.4282c-.542-1.5421-1.1192-3.04-1.7316-4.5117a23.8643,23.8643,0,0,0-2.08-3.93q-1.1565-1.7315-2.1942-3.1194a16.2987,16.2987,0,0,0-2.08-2.3087c-.6961-.608-1.3129-1.1544-1.8505-1.6126a17.1623,17.1623,0,0,0-1.5024-1.1631h90.82Z" transform="translate(-42.466 -46.7408)"></path><path class="cls-2" d="M1134.3483,137.7941l-4.1593,14.3281-4.6218,15.9408-16.1742,56.6164L1105,240.6289h-70.0193l4.3927-15.9495,16.4034-56.6164,4.3927-15.9408h.4626a6.1646,6.1646,0,0,0,.2291-1.85,38.924,38.924,0,0,0-.3436-7.9747,28.2857,28.2857,0,0,0-1.736-6.5825,36.4244,36.4244,0,0,0-2.6568-5.199,26.4843,26.4843,0,0,0-2.8859-3.93c-.9252-.9958-1.7755-1.8858-2.5422-2.6524a17.3749,17.3749,0,0,0-2.5422-2.0884H1138.97Zm-4.6219-91.0533q14.0968,0,21.1442,9.8252,7.0517,9.8209,3.1194,23.9155-4.1571,13.8656-16.866,23.801-12.7155,9.94-26.8058,9.94-13.8655,0-20.915-9.94-7.0518-9.9267-3.1194-23.801a45.6593,45.6593,0,0,1,6.4679-13.1738,48.7539,48.7539,0,0,1,10.2835-10.7417,50.4937,50.4937,0,0,1,12.9447-7.164A38.8294,38.8294,0,0,1,1129.7264,46.7408Z" transform="translate(-42.466 -46.7408)"></path><path class="cls-2" d="M1205.3033,224.6794H1242.97l4.3883-15.7116,4.6219-15.9407h-76.4873a24.0563,24.0563,0,0,1-13.8655-3.93,20.7093,20.7093,0,0,1-8.0894-10.3981,25.48,25.48,0,0,1-.4626-15.9495.98.98,0,0,1,.1146-.4582,1.0436,1.0436,0,0,0,.1145-.4671l3.0049-10.8562c.4626-1.2337.771-2.08.9252-2.5467a37.71,37.71,0,0,1,7.6267-12.7067,41.5144,41.5144,0,0,1,6.7015-6.5825,48.2558,48.2558,0,0,1,7.7412-4.97,40.1768,40.1768,0,0,1,8.552-3.234,34.61,34.61,0,0,1,8.6621-1.1631h145.8193a27.2505,27.2505,0,0,1-1.3879,6.7058l-2.5422,9.2437H1230.7213l-7.6267,27.0349h76.029a24.4839,24.4839,0,0,1,14.5573,4.2738,21.93,21.93,0,0,1,8.3228,11.6757,28.2668,28.2668,0,0,1,0,14.3282,2.2966,2.2966,0,0,1-.4626,1.1543l-4.1592,14.7864v.2291a43.9537,43.9537,0,0,1-8.552,15.4825,45.739,45.739,0,0,1-14.9053,11.6758,38.5884,38.5884,0,0,1-17.2185,4.2737H1130.6577l4.6219-15.9495Z" transform="translate(-42.466 -46.7408)"></path><path class="cls-2" d="M1499.944,224.6794l-21.4922,15.95h-76.2582a32.7726,32.7726,0,0,1-6.4723-.6961,21.78,21.78,0,0,1-10.2835-5.4281,21.0226,21.0226,0,0,1-5.8907-9.8253,28.5783,28.5783,0,0,1,.4626-15.2446l.2291-.467,4.3927-15.9407,4.1593-14.3282,4.6218-15.9495,7.6223-27.0349h-45.2932l19.6462-15.9495h30.2688l2.7758-9.7019a8.5493,8.5493,0,0,0,.4626-1.269,6.9294,6.9294,0,0,1,.4626-1.2689v-.2379a53.3421,53.3421,0,0,0-.5816-7.9659,26.0353,26.0353,0,0,0-1.7315-6.4768,53.6309,53.6309,0,0,0-2.5422-5.0845,22.3565,22.3565,0,0,0-2.8859-4.0446c-1.0046-1.0751-1.89-1.9651-2.6612-2.6524q-1.1567-1.0442-2.5423-2.1942h90.82L1482.8445,94.81l-7.164,24.9553h53.378l-6.9305,5.3223-13.6364,10.6272h-37.433l-7.86,27.0349-4.3883,15.95-4.1592,14.3282-4.6219,15.9407-4.3927,15.7116Z" transform="translate(-42.466 -46.7408)"></path><path class="cls-2" d="M1549.3981,121.8446h146.0484q8.7832,0,14.7907,4.2825a20.7647,20.7647,0,0,1,8.0894,11.667,25.2271,25.2271,0,0,1,0,14.3281,3.7793,3.7793,0,0,1-.2336,1.1544l-4.1592,14.7864-11.7859,41.1339a44.5067,44.5067,0,0,1-8.6665,15.368,46.5939,46.5939,0,0,1-14.7863,11.6757,37.8825,37.8825,0,0,1-17.2185,4.3883H1546.8558q-12.94,0-19.5271-9.1291-6.5825-9.12-2.8859-22.065l7.3932-26.1184a39.4516,39.4516,0,0,1,8.5519-15.2534,46.6938,46.6938,0,0,1,14.5573-11.5524,37.143,37.143,0,0,1,17.0995-4.3884h76.4916l3.93-14.3281H1545.01Zm94.5164,46.2184H1606.248l-16.1786,56.6164H1627.74Z" transform="translate(-42.466 -46.7408)"></path><polygon class="cls-3" points="3769.366 461.319 3567.556 461.319 3567.556 426.135 3779.135 426.135 3769.366 461.319"></polygon><path class="cls-3" d="M2483.6152,473.9978a43.8631,43.8631,0,0,0-24.799,7.6952q-11.5428,7.68-14.5285,18.3761-3.001,10.6809,4.063,18.376,7.0488,7.6953,20.51,7.6952a44.1678,44.1678,0,0,0,25.0041-7.6952q11.5428-7.6951,14.5388-18.376,2.9858-10.6809-4.2785-18.3761T2483.6152,473.9978Z" transform="translate(-42.466 -46.7408)"></path><path class="cls-3" d="M2737.7222,461.5932l-4.6992,16.6729h-69.6773l4.6992-16.6729,8.5571-29.4879,16.6626-58.5552,8.5468-29.4982,7.6951-26.5021h69.6773l-7.6952,26.5021-8.5468,29.4982h129.515l7.6951-27.364a5.1939,5.1939,0,0,1,.8516-2.1342,49.05,49.05,0,0,0-.4309-26.5021,38.4765,38.4765,0,0,0-14.9594-21.5876q-11.1118-7.8953-26.9229-7.9h-212.869q-15.39,0-31.2014,7.9a85.7265,85.7265,0,0,0-27.3538,21.5876,82.1469,82.1469,0,0,0-14.9594,26.5021,1.9749,1.9749,0,0,1-.2155.8516,1.7884,1.7884,0,0,0-.2154.8619L2563.75,373.55l-16.6627,58.5552-5.13,17.9554a78.874,78.874,0,0,0-2.1444,11.5325,40.1908,40.1908,0,0,0,1.7135,16.6729,37.2574,37.2574,0,0,0,14.5387,21.372q11.0966,8.1261,26.9229,8.1261h212.4381a64.5511,64.5511,0,0,0,21.5876-3.8476,86.799,86.799,0,0,0,20.51-10.4757,97.5826,97.5826,0,0,0,17.3192-15.1748,61.4312,61.4312,0,0,0,10.6809-16.6729,49.7134,49.7134,0,0,0,5.13-11.9634l4.6991-17.5245H2745.838Z" transform="translate(-42.466 -46.7408)"></path><path class="cls-3" d="M3234.4,363.7106l5.9919-21.3721q4.2631-15.375.4207-28.6363a38.4765,38.4765,0,0,0-14.9594-21.5876q-11.1119-7.8953-26.9229-7.9h-212.869a66.72,66.72,0,0,0-21.1566,3.6321,77.6253,77.6253,0,0,0-20.305,10.26,93.3254,93.3254,0,0,0-17.0936,15.5956,79.6359,79.6359,0,0,0-13.6769,23.5164c-.2873.2873-.8618,1.8469-1.7134,4.6992l-5.9818,21.7928-8.557,29.4981-7.6849,26.5022-8.557,29.4879-.4207.8619q-4.2786,14.9593-.6464,28.4208a37.378,37.378,0,0,0,14.7542,21.3721q11.0964,7.9107,26.9229,7.9106h212.869a70.1285,70.1285,0,0,0,31.6221-7.9106,85.4824,85.4824,0,0,0,27.364-21.5875,69.4679,69.4679,0,0,0,15.811-28.6363v-.431l7.6952-27.3538a2.6922,2.6922,0,0,0,.6361-1.067,3.4882,3.4882,0,0,0,.2155-1.0671l7.6952-26.5022Zm-129.515,0-8.5467,29.4981-7.6952,26.5022-8.5468,29.4879-8.1158,29.0673h-69.6773l8.5468-29.0673,8.5468-29.4879,7.6951-26.5022,8.1261-29.4981,14.1079-50.0084h70.0979Z" transform="translate(-42.466 -46.7408)"></path><path class="cls-3" d="M3742.62,313.7022a38.4765,38.4765,0,0,0-14.9594-21.5876q-11.1273-7.8953-26.9331-7.9H3588.316l-3.8475,11.9634a50.2124,50.2124,0,0,0,2.565-11.9634H3249.359q2.1238,1.7084,4.4837,3.8476c1.5595,1.4261,3.2114,3.0575,4.9146,4.9146a48.245,48.245,0,0,1,5.3456,7.2643,55.2943,55.2943,0,0,1,4.6992,9.6138,72.0186,72.0186,0,0,1,3.2115,12.1891,63.3287,63.3287,0,0,1,.8516,14.744v.4309c-.2873.8516-.8516,2.4214-1.7135,4.6992l-5.9817,21.7928-8.5468,29.4981-7.6952,26.5022-8.5467,29.4879-16.6729,58.5654h129.5149l16.6729-58.5654,8.5468-29.4879,7.6951-26.5022,8.5468-29.4981,14.1078-50.0084h41.4616l-14.5387,50.0084L3427.6,393.2087l-7.6951,26.5022-8.1261,29.4879-17.0936,58.5654H3524.2l8.1159-28.6363,8.557-29.9291,7.6849-27.3538a4.1023,4.1023,0,0,0,.8619-2.1341l7.6952-26.5022,8.1158-29.4981,6.4127-21.3721,8.1261-28.6363h41.4616l-14.1079,50.0084-41.8925,144.0536h129.5149l8.5468-28.6363,16.242-57.2829,22.6546-79.5065Q3746.8982,326.9635,3742.62,313.7022Z" transform="translate(-42.466 -46.7408)"></path><polygon class="cls-2" points="9.769 426.135 211.578 426.135 211.578 461.319 0 461.319 9.769 426.135"></polygon><path class="cls-2" d="M266.5029,337.2186v-.2949l-.5169,1.7545C266.1925,338.1042,266.3874,337.5611,266.5029,337.2186Z" transform="translate(-42.466 -46.7408)"></path><path class="cls-2" d="M690.94,313.7022a38.476,38.476,0,0,0-14.9594-21.5876q-11.12-7.8953-26.928-7.9H536.6363l-3.8476,11.9634a50.4588,50.4588,0,0,0,2.565-11.9634H236.7091l-15.5237,52.7094v.2949c-.1154.3425-.31.8856-.5169,1.46l-4.485,15.2287-2.6933,9.8037-8.5468,29.4981-7.6951,26.5022-8.5468,29.4879-16.6729,58.5654H301.5435l16.6678-58.5654,8.5519-29.4879,7.6952-26.5022,8.5467-29.4981,14.1027-50.0084h41.4616L384.041,363.7106l-8.121,29.4981-7.6952,26.5022-8.121,29.4879-17.0987,58.5654H472.52l8.1209-28.6363,8.5468-29.9291,7.6952-27.3538a4.132,4.132,0,0,0,.8567-2.1341l7.69-26.5022,8.1209-29.4981,6.4127-21.3721,8.121-28.6363H569.546l-14.1027,50.0084L513.5507,507.7642h129.515l8.5519-28.6363L667.86,421.845l22.6546-79.5065Q695.2082,326.9635,690.94,313.7022Z" transform="translate(-42.466 -46.7408)"></path><path class="cls-2" d="M1030.9661,292.1146q-11.12-7.8953-26.928-7.9H791.1742a66.7445,66.7445,0,0,0-21.1566,3.6321,77.4675,77.4675,0,0,0-20.305,10.26,93.3542,93.3542,0,0,0-17.0987,15.5956,79.9739,79.9739,0,0,0-13.6769,23.5164c-.2872.2873-.8567,1.8469-1.7083,4.6992l-5.9868,21.7928-8.5468,29.4981L695,419.7109l-8.5468,29.4879-.4309.8619q-4.2631,14.9593-.6361,28.4208A37.338,37.338,0,0,0,700.13,499.8536q11.1119,7.9107,26.928,7.9106H939.9219a70.1853,70.1853,0,0,0,31.6323-7.9106,85.4981,85.4981,0,0,0,27.3538-21.5875,69.4806,69.4806,0,0,0,15.8162-28.6363v-.431l7.6951-27.3538a2.7006,2.7006,0,0,0,.6413-1.067,3.6524,3.6524,0,0,0,.2155-1.0671l7.69-26.5022,8.5519-29.4981,5.9817-21.3721q4.2709-15.375.4258-28.6363A38.4515,38.4515,0,0,0,1030.9661,292.1146Zm-120.963,71.596-8.5519,29.4981-7.69,26.5022-8.552,29.4879-8.1209,29.0673H807.4162l8.5519-29.0673,8.5467-29.4879,7.6952-26.5022,8.121-29.4981,14.1027-50.0084h70.103Z" transform="translate(-42.466 -46.7408)"></path><path class="cls-2" d="M1713.8011,363.7106l5.9817-21.3721q4.2708-15.375.4258-28.6363a38.4515,38.4515,0,0,0-14.9594-21.5876q-11.12-7.8953-26.928-7.9H1465.4573a66.744,66.744,0,0,0-21.1566,3.6321,77.4675,77.4675,0,0,0-20.305,10.26,93.3542,93.3542,0,0,0-17.0987,15.5956,79.9717,79.9717,0,0,0-13.6769,23.5164c-.2873.2873-.8567,1.8469-1.7083,4.6992l-5.9868,21.7928-8.5468,29.4981-7.6952,26.5022-8.5468,29.4879-.4309.8619q-4.2632,14.9593-.6361,28.4208a37.338,37.338,0,0,0,14.7439,21.3721q11.1119,7.9107,26.928,7.9106H1614.205a70.1853,70.1853,0,0,0,31.6323-7.9106,85.4981,85.4981,0,0,0,27.3538-21.5875,69.4806,69.4806,0,0,0,15.8162-28.6363v-.431l7.6951-27.3538a2.7006,2.7006,0,0,0,.6413-1.067,3.6524,3.6524,0,0,0,.2155-1.0671l7.69-26.5022Zm-129.5149,0-8.5519,29.4981-7.69,26.5022-8.5519,29.4879-8.1209,29.0673h-69.6722l8.552-29.0673,8.5467-29.4879,7.6952-26.5022,8.121-29.4981,14.1027-50.0084h70.103Z" transform="translate(-42.466 -46.7408)"></path><path class="cls-2" d="M1935.2118,393.2087l-7.6952,26.5022h129.515q3.4166-13.2511,5.3456-20.305,1.9238-7.0488,4.6991-16.2419,2.77-9.1881,5.7766-19.4534l6.4126-21.3721q4.2631-15.375.4207-28.6363a38.1332,38.1332,0,0,0-15.1749-21.5876q-11.3273-7.8953-27.1383-7.9H1728.7554a40.9011,40.9011,0,0,1,4.9147,3.8476c1.5646,1.4261,3.2063,3.0575,4.92,4.9146a39.9991,39.9991,0,0,1,5.125,7.2643,87.1493,87.1493,0,0,1,4.7043,9.6138,52.36,52.36,0,0,1,3.2064,12.1891,72.192,72.192,0,0,1,.6412,14.744v.4309a37.7657,37.7657,0,0,0-1.2825,4.6992l-6.4126,21.7928-8.5468,29.4981-7.2694,26.5022-8.5468,29.4879L1703.11,507.7642h129.5149l17.0987-58.5654,8.5467-29.4879,7.2694-26.5022,8.5468-29.4981,14.1027-50.0084h69.6772l-14.5336,50.0084Z" transform="translate(-42.466 -46.7408)"></path><path class="cls-2" d="M2397.696,371.6212q-11.1118-7.8952-26.9229-7.9106H2230.1464l14.0975-50.0084h199.1922l4.6992-17.0936a51.15,51.15,0,0,0,2.565-12.3943h-269.721a64.5457,64.5457,0,0,0-16.0265,2.1341,75.2448,75.2448,0,0,0-15.8007,5.9817,90.4076,90.4076,0,0,0-14.3233,9.1932,77.2712,77.2712,0,0,0-12.3944,12.1789,69.8321,69.8321,0,0,0-14.118,23.5164c-.2873.8516-.8414,2.4214-1.7032,4.6992l-5.5611,20.09a1.8263,1.8263,0,0,1-.2052.8516,1.9219,1.9219,0,0,0-.2257.8516q-4.2786,15.8213.8618,29.4981a38.3674,38.3674,0,0,0,14.9595,19.238q10.6809,7.2642,25.65,7.2642h141.4887l-8.5571,29.4879-8.1261,29.0673H2067.7166l-8.5468,29.4981h270.1315q15.8212,0,31.8477-7.9106a84.7629,84.7629,0,0,0,27.58-21.5875,80.9517,80.9517,0,0,0,15.8008-28.6363v-.431l7.6952-27.3538a4.1029,4.1029,0,0,0,.8618-2.1341,52.1947,52.1947,0,0,0,0-26.5022A40.5312,40.5312,0,0,0,2397.696,371.6212Z" transform="translate(-42.466 -46.7408)"></path><path class="cls-2" d="M264.7945,341.9178l-3.2935,11.9891,4.485-15.2287C265.6782,339.5317,265.3037,340.5558,264.7945,341.9178Z" transform="translate(-42.466 -46.7408)"></path><path class="cls-2" d="M1184.2038,261.56v-.0558l-.0962.32C1184.14,261.754,1184.1717,261.6244,1184.2038,261.56Z" transform="translate(-42.466 -46.7408)"></path><path class="cls-2" d="M1295.5509,284.2143l7.3467-30.4113H1174.7928l-1.9184,7.7009v.0558c-.032.0647-.0641.1943-.0962.2642l-6.7422,22.39h-55.9953l-36.3314,29.4879h83.7748l-14.1027,50.0084-8.5519,29.4981-7.69,26.5022-8.1209,29.4879-.431.8619q-4.2785,14.9593-.8516,28.2054a38.9194,38.9194,0,0,0,10.8964,18.1708,40.32,40.32,0,0,0,19.0225,10.0448,61.4445,61.4445,0,0,0,11.9685,1.2825h141.0526l39.7533-29.4981H1239.9815l8.1209-29.0673,8.5468-29.4879,7.6952-26.5022,8.121-29.4981,14.5336-50.0084h69.2463l25.22-19.6586,12.82-9.8293Z" transform="translate(-42.466 -46.7408)"></path><path class="cls-2" d="M1183.3471,263.9093a14.5992,14.5992,0,0,1-.8516,2.35l-5.13,17.9554,6.7423-22.39A13.7034,13.7034,0,0,0,1183.3471,263.9093Z" transform="translate(-42.466 -46.7408)"></path></svg> 